<svg xmlns="http://www.w3.org/2000/svg" viewBox="0 0 139.99 159.14"><defs><style>.a{fill:#fff;}</style></defs><title>cheeseburger</title><path class="a" d="M130.9,126.68a4,4,0,0,0-3.93,4.07l0.08,4.82a15.59,15.59,0,0,1-15.57,15.57h-83a15.59,15.59,0,0,1-15.57-15.57v-4.92a4,4,0,0,0-8,0v4.92a23.6,23.6,0,0,0,23.57,23.57h83A23.61,23.61,0,0,0,135,135.5L135,130.61A4,4,0,0,0,130.9,126.68Z"/><path class="a" d="M140,47.16C137.43,16.75,112.59,0,70,0S2.56,16.75,0,47.16a7.59,7.59,0,0,0,7.55,8.23H132.41A7.59,7.59,0,0,0,140,47.16ZM8,47.39c1.19-12.9,7.2-22.81,17.89-29.45S51.35,8,70,8s33.47,3.34,44.07,9.94S130.77,34.49,132,47.39H8Z"/><path class="a" d="M131.81,105.39H8.19a4,4,0,1,0,0,8H40l30,24.74,30-24.74h31.79A4,4,0,0,0,131.81,105.39ZM70,127.76L52.56,113.39H87.43Z"/><path class="a" d="M131.81,76.61H8.19a4,4,0,0,0,0,8H131.81A4,4,0,0,0,131.81,76.61Z"/></svg>